<svg xmlns="http://www.w3.org/2000/svg" viewBox="0 0 1200 820"><rect width="1200" height="820" rx="42" fill="#0b1220"/><rect x="125" y="105" width="950" height="610" rx="34" fill="#f8fafc"/><rect x="170" y="155" width="420" height="510" rx="25" fill="#fff" stroke="#e2e8f0"/><rect x="625" y="155" width="405" height="510" rx="25" fill="#0f172a"/><rect x="210" y="205" width="220" height="22" rx="11" fill="#0f172a"/><rect x="210" y="260" width="330" height="52" rx="15" fill="#f1f5f9"/><rect x="210" y="335" width="330" height="52" rx="15" fill="#f1f5f9"/><rect x="210" y="410" width="330" height="110" rx="15" fill="#f1f5f9"/><rect x="210" y="550" width="330" height="58" rx="16" fill="#2563eb"/><text x="375" y="587" text-anchor="middle" font-family="Arial" font-size="22" font-weight="700" fill="white">START THE CONVERSATION</text><circle cx="690" cy="225" r="36" fill="#22c55e"/><path d="M674 225l10 10 21-24" stroke="white" stroke-width="7" fill="none" stroke-linecap="round" stroke-linejoin="round"/><rect x="750" y="205" width="210" height="18" rx="9" fill="#e2e8f0"/><rect x="750" y="238" width="170" height="12" rx="6" fill="#64748b"/><rect x="675" y="320" width="290" height="94" rx="22" fill="#111827" stroke="#334155"/><rect x="700" y="346" width="180" height="14" rx="7" fill="#e2e8f0"/><rect x="700" y="375" width="225" height="11" rx="6" fill="#475569"/><rect x="705" y="465" width="250" height="62" rx="18" fill="#22c55e"/><text x="830" y="503" text-anchor="middle" font-family="Arial" font-size="22" font-weight="700" fill="#052e16">WHATSAPP DIRECT</text><rect x="705" y="552" width="250" height="62" rx="18" fill="#2563eb"/><text x="830" y="590" text-anchor="middle" font-family="Arial" font-size="22" font-weight="700" fill="white">EMAIL PROJECT BRIEF</text></svg>